<?xml version="1.0" standalone="no"?> 

<!DOCTYPE svg PUBLIC "-//W3C//DTD SVG 20010904//EN" "http://www.w3.org/TR/2001/REC-SVG-20010904/DTD/svg10.dtd">
 
<svg version="1.0" xmlns="http://www.w3.org/2000/svg" width="500.000000pt" height="500.000000pt" viewBox="0 0 500.000000 500.000000" preserveAspectRatio="xMidYMid meet"> 
    <g transform="translate(0.000000,500.000000) scale(0.100000,-0.100000)" fill="#000000" stroke="none"> 
        <path d="M1370 3404 c-188 -24 -475 -99 -647 -169 l-43 -17 0 -74 c0 -77 2 -82 57 -114 48 -29 62 -59 74 -156 38 -320 180 -546 414 -659 111 -54 188 -68 340 -62 115 4 140 8 218 37 160 59 302 171 394 312 56 87 89 174 119 317 28 135 55 183 117 212 80 36 190 17 244 -42 27 -30 48 -87 58 -159 39 -288 248 -546 525 -647 69 -25 87 -27 230 -27 144 -1 160 1 228 26 105 39 175 82 253 155 141 133 221 314 244 548 8 85 32 128 86 156 l40 20 -3 82 -3 82 -95 33 c-480 168 -841 191 -1150 76 -36 -14 -117 -54 -181 -89 -128 -72 -148 -75 -254 -50 -79 19 -179 19 -267 -1 -39 -9 -88 -14 -108 -11 -21 3 -82 30 -137 61 -192 110 -356 156 -583 161 -74 2 -151 1 -170 -1z m343 -118 c159 -31 288 -91 372 -174 74 -72 106 -192 84 -317 -45 -267 -243 -479 -504 -541 -91 -21 -226 -15 -314 15 -179 62 -323 221 -397 441 -27 78 -27 280 -1 328 63 115 208 209 382 247 81 18 286 18 378 1z m2032 -19 c138 -45 260 -133 308 -222 19 -35 22 -55 21 -155 0 -102 -4 -125 -31 -203 -42 -119 -85 -189 -168 -273 -73 -73 -125 -107 -222 -145 -47 -18 -79 -22 -168 -23 -130 -1 -177 10 -297 71 -210 107 -348 327 -348 556 0 80 4 100 29 152 58 122 200 210 422 260 45 10 109 14 219 11 134 -3 166 -7 235 -29z m529 -100 c16 -25 -16 -56 -38 -37 -19 15 -20 32 -4 48 15 15 28 11 42 -11z m-3490 -4 c8 -21 -17 -48 -38 -40 -9 4 -16 18 -16 32 0 20 5 25 24 25 13 0 27 -8 30 -17z"/> 
        <path d="M2071 1858 c-99 -208 -99 -208 -69 -208 16 0 29 11 43 38 l20 37 85 0 85 0 18 -37 c13 -29 23 -38 42 -38 14 0 25 2 25 4 0 3 -94 211 -144 316 l-25 54 -80 -166z m114 -19 c15 -33 25 -63 22 -65 -3 -3 -31 -4 -64 -2 l-59 3 29 63 c16 34 32 62 37 62 4 0 20 -27 35 -61z"/> 
        <path d="M1660 1990 c0 -16 8 -19 58 -22 l57 -3 3 -157 3 -158 24 0 25 0 0 160 0 160 50 0 c43 0 50 3 50 20 0 19 -7 20 -135 20 -127 0 -135 -1 -135 -20z"/> 
        <path d="M2360 2006 c0 -2 30 -67 66 -143 36 -76 75 -158 86 -183 l20 -45 12 30 c7 17 45 99 85 182 39 84 71 155 71 158 0 3 -11 5 -25 5 -22 0 -30 -9 -53 -62 -15 -35 -41 -92 -58 -128 l-32 -65 -61 128 c-54 112 -64 127 -86 127 -14 0 -25 -2 -25 -4z"/> 
        <path d="M2770 1883 c0 -151 16 -200 77 -228 55 -26 126 -16 166 24 l32 31 3 150 3 150 -25 0 -26 0 0 -134 c0 -127 -1 -136 -24 -162 -31 -37 -84 -38 -121 -4 -24 23 -25 27 -25 162 l0 138 -30 0 -30 0 0 -127z"/> 
        <path d="M3160 1830 l0 -180 105 0 c98 0 105 1 105 20 0 18 -7 20 -80 20 l-81 0 3 68 3 67 73 0 c68 0 72 1 72 23 0 21 -4 22 -75 22 l-75 0 0 50 0 50 80 0 c73 0 80 2 80 20 0 19 -7 20 -105 20 l-105 0 0 -180z"/> 
    </g> 
</svg>